<svg id="Layer_1" data-name="Layer 1" xmlns="http://www.w3.org/2000/svg" width="200" height="30" viewBox="0 0 200 30"><defs><style>.cls-1{fill:#fff;}</style></defs><path class="cls-1" d="M53.6315,5.0044h.3272q3.9088,0,7.8176-.0044a.6526.6526,0,0,1,.512.21q2.69,2.7063,5.39,5.4038a.5971.5971,0,0,1,.1911.3558c.0118,2.008.0084,4.016.0084,6.1078L58.4927,7.7408V24.9455H53.6315Z"/><path class="cls-1" d="M74.79,24.972h-.8875c-2.41,0-4.82.0038-7.23-.0083a.7494.7494,0,0,1-.4771-.1932q-2.7114-2.685-5.3988-5.3943a.6357.6357,0,0,1-.1945-.3866c-.0123-1.9671-.0086-3.9343-.008-5.9016,0-.0368.0074-.0736.0179-.1722L69.96,22.21V5.0228h4.83Z"/><path class="cls-1" d="M90.9773,18.2854H80.9791a3.2173,3.2173,0,0,0,2.4876,3.6423,3.2906,3.2906,0,0,0,3.2563-.9244,6.3623,6.3623,0,0,0,.4164-.6442.384.384,0,0,1,.24-.1705c1.1227-.01,2.2454-.0052,3.3682-.0025a.4434.4434,0,0,1,.1078.0364A5.0636,5.0636,0,0,1,89.01,23.4312a6.8177,6.8177,0,0,1-3.4275,1.4377,8.7907,8.7907,0,0,1-4.0295-.2887,5.9862,5.9862,0,0,1-3.9964-3.8678,9.5166,9.5166,0,0,1,.0852-6.7983A6.2955,6.2955,0,0,1,83.5936,9.757a7.4064,7.4064,0,0,1,3.6694.6454,6.278,6.278,0,0,1,3.4815,4.46A12.8609,12.8609,0,0,1,90.9773,18.2854Zm-3.8409-2.4735a3.0194,3.0194,0,0,0-3.364-3.1,3.11,3.11,0,0,0-2.754,3.1Z"/><path class="cls-1" d="M120.5479,18.2785h-10.067a11.0051,11.0051,0,0,0,.1144,1.1142,2.9783,2.9783,0,0,0,2.0472,2.4207,3.4,3.4,0,0,0,3.4276-.5826,4.8378,4.8378,0,0,0,.6338-.8616c.0541-.0729.135-.1788.2044-.1794,1.1625-.0112,2.3252-.008,3.5361-.008-.0627.27-.103.5105-.1751.7416a5.258,5.258,0,0,1-3.18,3.4016,8.4669,8.4669,0,0,1-6.5014.0517,5.6813,5.6813,0,0,1-3.3162-3.3115,9.38,9.38,0,0,1,.2429-7.8129,6.0869,6.0869,0,0,1,4.8409-3.4172,7.7762,7.7762,0,0,1,4.07.3952A6.2722,6.2722,0,0,1,120.36,15.061,13.4681,13.4681,0,0,1,120.5479,18.2785Zm-3.8441-2.4676a3.0149,3.0149,0,0,0-3.1685-3.112,3.1117,3.1117,0,0,0-2.9566,3.112Z"/><path class="cls-1" d="M136.1366,24.652H132.16v-.3677c0-2.6992.0072-5.3984-.0074-8.0975a5.4339,5.4339,0,0,0-.165-1.3107,2.257,2.257,0,0,0-2.1808-1.773,2.8787,2.8787,0,0,0-3.2286,3.12c-.0085,2.6786-.0021,5.3572-.0021,8.0358v.385h-3.9631V10.0887h3.8042v2.5941a1.4077,1.4077,0,0,0,.1526-.1869,4.6637,4.6637,0,0,1,4.7532-2.7143,4.9118,4.9118,0,0,1,2.9988.9862,4.8053,4.8053,0,0,1,1.738,3.3306,10.2859,10.2859,0,0,1,.0741,1.3242q.0093,4.42.0032,8.8394Z"/><path class="cls-1" d="M91.8558,10.0632h.3411c1.2772,0,2.5545.0086,3.8315-.0074a.4526.4526,0,0,1,.4688.2906c.7666,1.4559,1.5437,2.9062,2.3183,4.3578.0469.0879.1009.1721.1871.3179.219-.417.4121-.7842.6049-1.1515.6212-1.1838,1.2459-2.3658,1.86-3.5533a.4081.4081,0,0,1,.4229-.26c1.2462.0119,2.4926.0054,3.7389.0064.0886,0,.1773.009.3019.0159-.0715.1249-.1225.2224-.1811.3151q-2.0941,3.3141-4.1947,6.6242a.4145.4145,0,0,0,.0032.5191q2.0982,3.4022,4.1787,6.8154c.0524.0857.1.1742.1775.3093h-.2994c-1.2463,0-2.4926-.005-3.7389.005a.4142.4142,0,0,1-.4284-.25c-.822-1.52-1.6559-3.0333-2.4868-4.5483-.0487-.0888-.1025-.1748-.1833-.3118-.0715.1221-.1273.2114-.1773.3039-.8226,1.5194-1.6477,3.0374-2.4618,4.5613a.3893.3893,0,0,1-.4022.2448c-1.2869-.0106-2.5739-.0054-3.9218-.0054.0794-.1361.1348-.2378.1963-.3356q2.096-3.3316,4.198-6.6592a.4535.4535,0,0,0,.004-.5694q-2.1049-3.3619-4.1877-6.7376C91.9732,10.2771,91.9273,10.1893,91.8558,10.0632Z"/><path class="cls-1" d="M146.3685,13.0594H143.7v.3938q0,3.2608,0,6.5216a1.51,1.51,0,0,0,1.8185,1.7069c.2745-.0162.5486-.0376.8423-.058v2.95a10.8049,10.8049,0,0,1-1.337.1184,16.8984,16.8984,0,0,1-2.6093-.1852,3.1192,3.1192,0,0,1-2.6985-3.4171c-.0188-2.5342-.0107-5.0686-.0141-7.6029,0-.1318,0-.2635,0-.4284h-2.0424V10.0667H139.7V6.7h3.9949V10.055h2.6735Z"/></svg>